<mxfile host="app.diagrams.net" modified="2023-05-02T07:14:46.745Z" agent="Mozilla/5.0 (Macintosh; Intel Mac OS X 10_15_7) AppleWebKit/537.36 (KHTML, like Gecko) Chrome/112.0.0.0 Safari/537.36" etag="VZZhsVw9RaxesW8dD3LV" version="21.2.3" type="device">
  <diagram name="Page-1" id="b9y4cwblvmRKYj2doaiM">
    <mxGraphModel dx="1026" dy="692" grid="1" gridSize="10" guides="1" tooltips="1" connect="1" arrows="1" fold="1" page="1" pageScale="1" pageWidth="827" pageHeight="583" background="#FFFFFF" math="0" shadow="0">
      <root>
        <mxCell id="0" />
        <mxCell id="1" parent="0" />
        <mxCell id="3DA4KyhjXwnGxXHeB9iJ-1" value="VPC" style="points=[[0,0],[0.25,0],[0.5,0],[0.75,0],[1,0],[1,0.25],[1,0.5],[1,0.75],[1,1],[0.75,1],[0.5,1],[0.25,1],[0,1],[0,0.75],[0,0.5],[0,0.25]];outlineConnect=0;gradientColor=none;html=1;whiteSpace=wrap;fontSize=12;fontStyle=0;container=1;pointerEvents=0;collapsible=0;recursiveResize=0;shape=mxgraph.aws4.group;grIcon=mxgraph.aws4.group_vpc;strokeColor=#248814;fillColor=none;verticalAlign=top;align=left;spacingLeft=30;fontColor=#AAB7B8;dashed=0;" parent="1" vertex="1">
          <mxGeometry x="50" y="67" width="580" height="490" as="geometry" />
        </mxCell>
        <mxCell id="3DA4KyhjXwnGxXHeB9iJ-2" value="Public subnet" style="points=[[0,0],[0.25,0],[0.5,0],[0.75,0],[1,0],[1,0.25],[1,0.5],[1,0.75],[1,1],[0.75,1],[0.5,1],[0.25,1],[0,1],[0,0.75],[0,0.5],[0,0.25]];outlineConnect=0;gradientColor=none;html=1;whiteSpace=wrap;fontSize=12;fontStyle=0;container=1;pointerEvents=0;collapsible=0;recursiveResize=0;shape=mxgraph.aws4.group;grIcon=mxgraph.aws4.group_security_group;grStroke=0;strokeColor=#248814;fillColor=#E9F3E6;verticalAlign=top;align=left;spacingLeft=30;fontColor=#248814;dashed=0;" parent="3DA4KyhjXwnGxXHeB9iJ-1" vertex="1">
          <mxGeometry x="60" y="58" width="490" height="120" as="geometry" />
        </mxCell>
        <mxCell id="3DA4KyhjXwnGxXHeB9iJ-5" value="" style="outlineConnect=0;dashed=0;verticalLabelPosition=bottom;verticalAlign=top;align=center;html=1;shape=mxgraph.aws3.vpc_nat_gateway;fillColor=#F58536;gradientColor=none;" parent="3DA4KyhjXwnGxXHeB9iJ-2" vertex="1">
          <mxGeometry x="55.5" y="27" width="69" height="72" as="geometry" />
        </mxCell>
        <mxCell id="3DA4KyhjXwnGxXHeB9iJ-6" value="" style="sketch=0;outlineConnect=0;fontColor=#232F3E;gradientColor=none;fillColor=#4D27AA;strokeColor=none;dashed=0;verticalLabelPosition=bottom;verticalAlign=top;align=center;html=1;fontSize=12;fontStyle=0;aspect=fixed;pointerEvents=1;shape=mxgraph.aws4.network_load_balancer;" parent="3DA4KyhjXwnGxXHeB9iJ-2" vertex="1">
          <mxGeometry x="360" y="12" width="76" height="76" as="geometry" />
        </mxCell>
        <mxCell id="YWxzhitp7M-jOpYn7NLB-2" value="NLB" style="text;strokeColor=none;align=center;fillColor=none;html=1;verticalAlign=middle;whiteSpace=wrap;rounded=0;" parent="3DA4KyhjXwnGxXHeB9iJ-2" vertex="1">
          <mxGeometry x="369" y="84" width="60" height="30" as="geometry" />
        </mxCell>
        <mxCell id="3DA4KyhjXwnGxXHeB9iJ-8" value="" style="sketch=0;outlineConnect=0;fontColor=#232F3E;gradientColor=none;fillColor=#4D27AA;strokeColor=none;dashed=0;verticalLabelPosition=bottom;verticalAlign=top;align=center;html=1;fontSize=12;fontStyle=0;aspect=fixed;pointerEvents=1;shape=mxgraph.aws4.route_table;" parent="3DA4KyhjXwnGxXHeB9iJ-1" vertex="1">
          <mxGeometry x="282" y="98" width="47.21" height="46" as="geometry" />
        </mxCell>
        <mxCell id="3DA4KyhjXwnGxXHeB9iJ-28" style="edgeStyle=orthogonalEdgeStyle;rounded=0;orthogonalLoop=1;jettySize=auto;html=1;entryX=0.5;entryY=1;entryDx=0;entryDy=0;entryPerimeter=0;startArrow=classic;startFill=1;" parent="3DA4KyhjXwnGxXHeB9iJ-1" source="3DA4KyhjXwnGxXHeB9iJ-7" target="3DA4KyhjXwnGxXHeB9iJ-5" edge="1">
          <mxGeometry relative="1" as="geometry" />
        </mxCell>
        <mxCell id="3DA4KyhjXwnGxXHeB9iJ-7" value="" style="sketch=0;outlineConnect=0;fontColor=#232F3E;gradientColor=none;fillColor=#4D27AA;strokeColor=none;dashed=0;verticalLabelPosition=bottom;verticalAlign=top;align=center;html=1;fontSize=12;fontStyle=0;aspect=fixed;pointerEvents=1;shape=mxgraph.aws4.route_table;" parent="3DA4KyhjXwnGxXHeB9iJ-1" vertex="1">
          <mxGeometry x="282" y="178.00000000000003" width="48" height="46.77" as="geometry" />
        </mxCell>
        <mxCell id="3DA4KyhjXwnGxXHeB9iJ-12" value="Private subnet" style="points=[[0,0],[0.25,0],[0.5,0],[0.75,0],[1,0],[1,0.25],[1,0.5],[1,0.75],[1,1],[0.75,1],[0.5,1],[0.25,1],[0,1],[0,0.75],[0,0.5],[0,0.25]];outlineConnect=0;gradientColor=none;html=1;whiteSpace=wrap;fontSize=12;fontStyle=0;container=1;pointerEvents=0;collapsible=0;recursiveResize=0;shape=mxgraph.aws4.group;grIcon=mxgraph.aws4.group_security_group;grStroke=0;strokeColor=#147EBA;fillColor=#E6F2F8;verticalAlign=top;align=left;spacingLeft=30;fontColor=#147EBA;dashed=0;" parent="3DA4KyhjXwnGxXHeB9iJ-1" vertex="1">
          <mxGeometry x="60" y="241" width="475" height="230" as="geometry" />
        </mxCell>
        <mxCell id="3DA4KyhjXwnGxXHeB9iJ-13" value="EC2 instance contents" style="points=[[0,0],[0.25,0],[0.5,0],[0.75,0],[1,0],[1,0.25],[1,0.5],[1,0.75],[1,1],[0.75,1],[0.5,1],[0.25,1],[0,1],[0,0.75],[0,0.5],[0,0.25]];outlineConnect=0;gradientColor=none;html=1;whiteSpace=wrap;fontSize=12;fontStyle=0;container=1;pointerEvents=0;collapsible=0;recursiveResize=0;shape=mxgraph.aws4.group;grIcon=mxgraph.aws4.group_ec2_instance_contents;strokeColor=#D86613;fillColor=none;verticalAlign=top;align=left;spacingLeft=30;fontColor=#D86613;dashed=0;" parent="3DA4KyhjXwnGxXHeB9iJ-12" vertex="1">
          <mxGeometry x="45" y="50" width="395" height="130" as="geometry" />
        </mxCell>
        <mxCell id="3DA4KyhjXwnGxXHeB9iJ-14" value="" style="outlineConnect=0;dashed=0;verticalLabelPosition=bottom;verticalAlign=top;align=center;html=1;shape=mxgraph.aws3.ec2_compute_container;fillColor=#F58534;gradientColor=none;" parent="3DA4KyhjXwnGxXHeB9iJ-13" vertex="1">
          <mxGeometry x="20.5" y="47.75" width="60" height="34.5" as="geometry" />
        </mxCell>
        <mxCell id="3DA4KyhjXwnGxXHeB9iJ-15" value="" style="outlineConnect=0;dashed=0;verticalLabelPosition=bottom;verticalAlign=top;align=center;html=1;shape=mxgraph.aws3.ec2_compute_container;fillColor=#F58534;gradientColor=none;" parent="3DA4KyhjXwnGxXHeB9iJ-13" vertex="1">
          <mxGeometry x="115" y="47.75" width="60" height="34.5" as="geometry" />
        </mxCell>
        <mxCell id="3DA4KyhjXwnGxXHeB9iJ-16" value="" style="outlineConnect=0;dashed=0;verticalLabelPosition=bottom;verticalAlign=top;align=center;html=1;shape=mxgraph.aws3.ec2_compute_container;fillColor=#F58534;gradientColor=none;" parent="3DA4KyhjXwnGxXHeB9iJ-13" vertex="1">
          <mxGeometry x="205" y="47.75" width="60" height="34.5" as="geometry" />
        </mxCell>
        <mxCell id="3DA4KyhjXwnGxXHeB9iJ-17" value="" style="outlineConnect=0;dashed=0;verticalLabelPosition=bottom;verticalAlign=top;align=center;html=1;shape=mxgraph.aws3.ec2_compute_container;fillColor=#F58534;gradientColor=none;" parent="3DA4KyhjXwnGxXHeB9iJ-13" vertex="1">
          <mxGeometry x="305" y="47.75" width="60" height="34.5" as="geometry" />
        </mxCell>
        <mxCell id="3DA4KyhjXwnGxXHeB9iJ-23" value="Security Group" style="fontStyle=0;verticalAlign=top;align=center;spacingTop=-2;fillColor=none;rounded=0;whiteSpace=wrap;html=1;strokeColor=#FF0000;strokeWidth=2;dashed=1;container=1;collapsible=0;expand=0;recursiveResize=0;" parent="3DA4KyhjXwnGxXHeB9iJ-12" vertex="1">
          <mxGeometry x="30" y="30" width="430" height="170" as="geometry" />
        </mxCell>
        <mxCell id="3DA4KyhjXwnGxXHeB9iJ-24" style="edgeStyle=orthogonalEdgeStyle;rounded=0;orthogonalLoop=1;jettySize=auto;html=1;startArrow=classic;startFill=1;" parent="3DA4KyhjXwnGxXHeB9iJ-1" source="3DA4KyhjXwnGxXHeB9iJ-5" target="3DA4KyhjXwnGxXHeB9iJ-8" edge="1">
          <mxGeometry relative="1" as="geometry" />
        </mxCell>
        <mxCell id="3DA4KyhjXwnGxXHeB9iJ-26" style="edgeStyle=orthogonalEdgeStyle;rounded=0;orthogonalLoop=1;jettySize=auto;html=1;startArrow=classicThin;startFill=1;" parent="3DA4KyhjXwnGxXHeB9iJ-1" source="3DA4KyhjXwnGxXHeB9iJ-23" target="3DA4KyhjXwnGxXHeB9iJ-7" edge="1">
          <mxGeometry relative="1" as="geometry" />
        </mxCell>
        <mxCell id="YWxzhitp7M-jOpYn7NLB-8" style="edgeStyle=orthogonalEdgeStyle;rounded=0;orthogonalLoop=1;jettySize=auto;html=1;exitX=0.75;exitY=0;exitDx=0;exitDy=0;entryX=0.5;entryY=1;entryDx=0;entryDy=0;" parent="3DA4KyhjXwnGxXHeB9iJ-1" source="3DA4KyhjXwnGxXHeB9iJ-23" target="YWxzhitp7M-jOpYn7NLB-2" edge="1">
          <mxGeometry relative="1" as="geometry" />
        </mxCell>
        <mxCell id="3DA4KyhjXwnGxXHeB9iJ-9" value="" style="sketch=0;outlineConnect=0;fontColor=#232F3E;gradientColor=none;fillColor=#4D27AA;strokeColor=none;dashed=0;verticalLabelPosition=bottom;verticalAlign=top;align=center;html=1;fontSize=12;fontStyle=0;aspect=fixed;pointerEvents=1;shape=mxgraph.aws4.internet_gateway;" parent="1" vertex="1">
          <mxGeometry x="316" y="27" width="78" height="78" as="geometry" />
        </mxCell>
        <mxCell id="3DA4KyhjXwnGxXHeB9iJ-29" style="edgeStyle=orthogonalEdgeStyle;rounded=0;orthogonalLoop=1;jettySize=auto;html=1;entryX=0.953;entryY=0.482;entryDx=0;entryDy=0;entryPerimeter=0;" parent="1" source="3DA4KyhjXwnGxXHeB9iJ-22" target="3DA4KyhjXwnGxXHeB9iJ-23" edge="1">
          <mxGeometry relative="1" as="geometry" />
        </mxCell>
        <mxCell id="3DA4KyhjXwnGxXHeB9iJ-22" value="" style="sketch=0;points=[[0,0,0],[0.25,0,0],[0.5,0,0],[0.75,0,0],[1,0,0],[0,1,0],[0.25,1,0],[0.5,1,0],[0.75,1,0],[1,1,0],[0,0.25,0],[0,0.5,0],[0,0.75,0],[1,0.25,0],[1,0.5,0],[1,0.75,0]];outlineConnect=0;fontColor=#232F3E;gradientColor=#F78E04;gradientDirection=north;fillColor=#D05C17;strokeColor=#ffffff;dashed=0;verticalLabelPosition=bottom;verticalAlign=top;align=center;html=1;fontSize=12;fontStyle=0;aspect=fixed;shape=mxgraph.aws4.resourceIcon;resIcon=mxgraph.aws4.lambda;" parent="1" vertex="1">
          <mxGeometry x="730" y="330" width="78" height="78" as="geometry" />
        </mxCell>
        <mxCell id="3DA4KyhjXwnGxXHeB9iJ-25" style="edgeStyle=orthogonalEdgeStyle;rounded=0;orthogonalLoop=1;jettySize=auto;html=1;startArrow=classic;startFill=1;" parent="1" source="3DA4KyhjXwnGxXHeB9iJ-8" target="3DA4KyhjXwnGxXHeB9iJ-9" edge="1">
          <mxGeometry relative="1" as="geometry" />
        </mxCell>
        <mxCell id="YWxzhitp7M-jOpYn7NLB-1" value="lambda for slack slash command" style="text;strokeColor=none;align=center;fillColor=none;html=1;verticalAlign=middle;whiteSpace=wrap;rounded=0;" parent="1" vertex="1">
          <mxGeometry x="719.5" y="410" width="99" height="30" as="geometry" />
        </mxCell>
        <mxCell id="YWxzhitp7M-jOpYn7NLB-9" value="" style="outlineConnect=0;dashed=0;verticalLabelPosition=bottom;verticalAlign=top;align=center;html=1;shape=mxgraph.aws3.ec2_compute_container;fillColor=#F58534;gradientColor=none;" parent="1" vertex="1">
          <mxGeometry x="280" y="415.75" width="60" height="34.5" as="geometry" />
        </mxCell>
        <mxCell id="YWxzhitp7M-jOpYn7NLB-10" value="" style="outlineConnect=0;dashed=0;verticalLabelPosition=bottom;verticalAlign=top;align=center;html=1;shape=mxgraph.aws3.ec2_compute_container;fillColor=#F58534;gradientColor=none;" parent="1" vertex="1">
          <mxGeometry x="290" y="425.75" width="60" height="34.5" as="geometry" />
        </mxCell>
      </root>
    </mxGraphModel>
  </diagram>
</mxfile>
